<svg width="35" height="26" viewBox="0 0 35 26" fill="none" xmlns="http://www.w3.org/2000/svg">
<path d="M2.27101e-06 1.79982V23.4186C-0.000528592 23.7522 0.0920197 24.0794 0.267301 24.3636C0.442583 24.6477 0.693689 24.8777 0.992548 25.0278C1.29141 25.1778 1.62624 25.2421 1.95962 25.2133C2.29299 25.1845 2.61178 25.0639 2.88032 24.8649L16.2505 14.9916V23.4186C16.2499 23.7522 16.3425 24.0794 16.5178 24.3636C16.693 24.6477 16.9442 24.8777 17.243 25.0278C17.5419 25.1778 17.8767 25.2421 18.2101 25.2133C18.5435 25.1845 18.8622 25.0639 19.1308 24.8649L33.7682 14.0554C33.9949 13.888 34.1791 13.6699 34.306 13.4187C34.433 13.1675 34.4991 12.8902 34.4991 12.6089C34.4991 12.3277 34.433 12.0503 34.306 11.7991C34.1791 11.5479 33.9949 11.3299 33.7682 11.1625L19.1308 0.35359C18.8621 0.155171 18.5434 0.0350359 18.2102 0.00657382C17.8771 -0.0218883 17.5425 0.0424405 17.2439 0.192391C16.9452 0.342342 16.6942 0.572024 16.5188 0.85584C16.3434 1.13965 16.2505 1.46645 16.2505 1.79982V10.2269L2.88032 0.35359C2.61162 0.155171 2.29293 0.0350359 1.95977 0.00657382C1.62661 -0.0218883 1.29206 0.0424405 0.99342 0.192391C0.694776 0.342342 0.443765 0.572024 0.268362 0.85584C0.0929585 1.13965 5.40175e-05 1.46645 2.27101e-06 1.79982ZM18.6579 2.99095L31.6823 12.6092L18.6579 22.2275V2.99095ZM2.40748 2.99095L15.4318 12.6092L2.40748 22.2275V2.99095Z" fill="white"/>
</svg>
