<svg width="35" height="26" viewBox="0 0 35 26" fill="none" xmlns="http://www.w3.org/2000/svg">
<path d="M34.499 23.4202V1.80134C34.4996 1.46774 34.407 1.14057 34.2317 0.856396C34.0564 0.572224 33.8053 0.342253 33.5065 0.192194C33.2076 0.042135 32.8728 -0.0220982 32.5394 0.00667381C32.206 0.0354458 31.8872 0.156091 31.6187 0.35512L18.2486 10.2284V1.80134C18.2491 1.46774 18.1565 1.14057 17.9813 0.856396C17.806 0.572224 17.5549 0.342253 17.256 0.192194C16.9572 0.042135 16.6223 -0.0220982 16.2889 0.00667381C15.9556 0.0354458 15.6368 0.156091 15.3682 0.35512L0.730785 11.1646C0.504091 11.332 0.3199 11.5501 0.192986 11.8013C0.0660708 12.0524 -3.43323e-05 12.3298 -3.43323e-05 12.611C-3.43323e-05 12.8923 0.0660708 13.1697 0.192986 13.4208C0.3199 13.672 0.504091 13.8901 0.730785 14.0575L15.3682 24.8664C15.6369 25.0648 15.9556 25.1849 16.2888 25.2134C16.622 25.2419 16.9565 25.1775 17.2551 25.0276C17.5538 24.8776 17.8048 24.6479 17.9802 24.3641C18.1556 24.0803 18.2485 23.7535 18.2486 23.4202V14.9931L31.6187 24.8664C31.8874 25.0648 32.2061 25.1849 32.5393 25.2134C32.8724 25.2419 33.207 25.1775 33.5056 25.0276C33.8042 24.8776 34.0553 24.6479 34.2307 24.3641C34.4061 24.0803 34.499 23.7535 34.499 23.4202ZM15.8411 22.229L2.81671 12.6108L15.8411 2.99248L15.8411 22.229ZM32.0915 22.229L19.0672 12.6108L32.0915 2.99248V22.229Z" fill="white"/>
</svg>
