<svg width="19" height="19" viewBox="0 0 19 19" fill="none" xmlns="http://www.w3.org/2000/svg">
<path d="M5.51 1.71H5.32C5.4245 1.71 5.51 1.6245 5.51 1.52V1.71H12.73V1.52C12.73 1.6245 12.8155 1.71 12.92 1.71H12.73V3.42H14.44V1.52C14.44 0.681625 13.7584 0 12.92 0H5.32C4.48163 0 3.8 0.681625 3.8 1.52V3.42H5.51V1.71ZM17.48 3.42H0.76C0.339625 3.42 0 3.75962 0 4.18V4.94C0 5.0445 0.0855 5.13 0.19 5.13H1.6245L2.21113 17.5513C2.24913 18.3611 2.91887 19 3.72875 19H14.5112C15.3235 19 15.9909 18.3635 16.0289 17.5513L16.6155 5.13H18.05C18.1545 5.13 18.24 5.0445 18.24 4.94V4.18C18.24 3.75962 17.9004 3.42 17.48 3.42ZM14.3284 17.29H3.91163L3.33687 5.13H14.9031L14.3284 17.29Z" fill="white"/>
</svg>
