<svg width="12" height="14" viewBox="0 0 12 14" fill="none" xmlns="http://www.w3.org/2000/svg">
<path d="M0.936429 13.11H6.555C6.80328 13.1098 7.04132 13.011 7.21688 12.8355C7.39244 12.6599 7.49118 12.4219 7.49143 12.1736V10.7689H6.555V12.1736H0.936429V0.936429H6.555V2.34107H7.49143V0.936429C7.49118 0.688148 7.39244 0.450108 7.21688 0.274547C7.04132 0.0989867 6.80328 0.000247909 6.555 0H0.936429C0.688148 0.000247909 0.450108 0.0989867 0.274547 0.274547C0.0989868 0.450108 0.000247909 0.688148 0 0.936429V12.1736C0.000247909 12.4219 0.0989868 12.6599 0.274547 12.8355C0.450108 13.011 0.688148 13.1098 0.936429 13.11Z" fill="#8F8F9C"/>
<path d="M7.76578 8.70224L9.4448 7.02323H2.80927V6.0868H9.4448L7.76578 4.40778L8.42784 3.74573L11.2371 6.55501L8.42784 9.3643L7.76578 8.70224Z" fill="#8F8F9C"/>
</svg>
