<svg width="50" height="50" viewBox="0 0 50 50" fill="none" xmlns="http://www.w3.org/2000/svg">
<path d="M47.4585 18.3873C47.591 18.0821 47.6629 17.7534 47.6699 17.42C47.6769 17.0866 47.619 16.755 47.4995 16.4443C47.3799 16.1336 47.2011 15.8498 46.9732 15.6092C46.7453 15.3686 46.4729 15.1758 46.1714 15.042L13.3675 0.410103C10.8711 -0.703305 7.79768 0.539747 6.7314 3.0589L1.18671 16.1605C0.665081 17.3998 0.650027 18.7982 1.14485 20.0487C1.63968 21.2993 2.60396 22.2998 3.82608 22.8308L18.9749 29.4096L15.8638 37.2899H5.01781V29.6638H0V50H5.01781V42.3739H15.8638C17.9286 42.3739 19.7576 41.1182 20.5203 39.176L23.5862 31.4127L36.6451 37.0814C37.2533 37.3458 37.9399 37.3561 38.5555 37.1099C39.1711 36.8638 39.6657 36.3812 39.9318 35.7672L40.7145 33.9623L44.9822 35.6909L50 22.9808L46.1463 21.4225L47.4585 18.3873ZM36.334 31.4178L5.8031 18.1611L11.3428 5.06456L41.8561 18.6746L36.334 31.4178Z" fill="#678ADD"/>
</svg>
