<svg width="70" height="70" viewBox="0 0 70 70" fill="none" xmlns="http://www.w3.org/2000/svg">
<g filter="url(#filter0_d_388_792)">
<path d="M35 0C17.8808 0 4 13.8808 4 31C4 48.1192 17.8808 62 35 62C52.1192 62 66 48.1192 66 31C66 13.8808 52.1192 0 35 0ZM35 56.7411C20.7871 56.7411 9.25893 45.2129 9.25893 31C9.25893 16.7871 20.7871 5.25893 35 5.25893C49.2129 5.25893 60.7411 16.7871 60.7411 31C60.7411 45.2129 49.2129 56.7411 35 56.7411Z" fill="white"/>
<path d="M49.3511 30.1074L28.862 15.2302C28.6977 15.1097 28.5031 15.0373 28.3 15.0209C28.097 15.0045 27.8933 15.0448 27.7118 15.1374C27.5303 15.2299 27.378 15.3711 27.272 15.5451C27.166 15.7191 27.1104 15.9191 27.1113 16.1228V45.8773C27.1113 46.7838 28.1354 47.2958 28.862 46.7699L49.3511 31.8927C49.4925 31.7908 49.6077 31.6567 49.6872 31.5015C49.7667 31.3463 49.8081 31.1744 49.8081 31.0001C49.8081 30.8257 49.7667 30.6539 49.6872 30.4987C49.6077 30.3435 49.4925 30.2094 49.3511 30.1074ZM31.5261 39.3798V22.6204L43.0611 31.0001L31.5261 39.3798Z" fill="white"/>
</g>
<defs>
<filter id="filter0_d_388_792" x="0" y="0" width="70" height="70" filterUnits="userSpaceOnUse" color-interpolation-filters="sRGB">
<feFlood flood-opacity="0" result="BackgroundImageFix"/>
<feColorMatrix in="SourceAlpha" type="matrix" values="0 0 0 0 0 0 0 0 0 0 0 0 0 0 0 0 0 0 127 0" result="hardAlpha"/>
<feOffset dy="4"/>
<feGaussianBlur stdDeviation="2"/>
<feComposite in2="hardAlpha" operator="out"/>
<feColorMatrix type="matrix" values="0 0 0 0 0 0 0 0 0 0 0 0 0 0 0 0 0 0 0.25 0"/>
<feBlend mode="normal" in2="BackgroundImageFix" result="effect1_dropShadow_388_792"/>
<feBlend mode="normal" in="SourceGraphic" in2="effect1_dropShadow_388_792" result="shape"/>
</filter>
</defs>
</svg>
