<svg width="16" height="15" viewBox="0 0 16 15" fill="none" xmlns="http://www.w3.org/2000/svg">
<path d="M1 1H14.8V9.97H1V1Z" stroke="#8F8F9C" stroke-linecap="round" stroke-linejoin="round"/>
<path d="M7.21002 4.10498L9.28002 5.48498L7.21002 6.86498V4.10498Z" stroke="#8F8F9C" stroke-linecap="round" stroke-linejoin="round"/>
<path d="M3.415 13.075H1.69" stroke="#8F8F9C" stroke-linecap="round" stroke-linejoin="round"/>
<path d="M5.48499 13.075H14.11" stroke="#8F8F9C" stroke-linecap="round" stroke-linejoin="round"/>
<path d="M5.48498 13.075C5.48498 13.2109 5.45821 13.3455 5.40619 13.4711C5.35418 13.5966 5.27794 13.7107 5.18183 13.8068C5.08573 13.9029 4.97163 13.9792 4.84606 14.0312C4.72048 14.0832 4.5859 14.11 4.44998 14.11C4.31406 14.11 4.17947 14.0832 4.0539 14.0312C3.92833 13.9792 3.81423 13.9029 3.71812 13.8068C3.62201 13.7107 3.54578 13.5966 3.49376 13.4711C3.44175 13.3455 3.41498 13.2109 3.41498 13.075C3.41498 12.8005 3.52402 12.5372 3.71812 12.3431C3.91222 12.149 4.17548 12.04 4.44998 12.04C4.72448 12.04 4.98773 12.149 5.18183 12.3431C5.37593 12.5372 5.48498 12.8005 5.48498 13.075V13.075Z" stroke="#8F8F9C" stroke-linecap="round" stroke-linejoin="round"/>
</svg>
