<svg width="12" height="15" viewBox="0 0 12 15" fill="none" xmlns="http://www.w3.org/2000/svg">
<path d="M1 2.311V12.799C1 13.1467 1.13812 13.4802 1.38398 13.726C1.62984 13.9719 1.9633 14.11 2.311 14.11H10.177C10.5247 14.11 10.8582 13.9719 11.104 13.726C11.3499 13.4802 11.488 13.1467 11.488 12.799V5.15718C11.488 4.98253 11.4531 4.80964 11.3853 4.64867C11.3175 4.4877 11.2183 4.3419 11.0934 4.21982L8.18297 1.37363C7.93805 1.13415 7.60913 1.00004 7.26658 1H2.311C1.9633 1 1.62984 1.13812 1.38398 1.38398C1.13812 1.62984 1 1.9633 1 2.311V2.311Z" stroke="#8F8F9C" stroke-linecap="round" stroke-linejoin="round"/>
<path d="M4.27753 8.21051H8.21053" stroke="#8F8F9C" stroke-linecap="round" stroke-linejoin="round"/>
<path d="M4.27753 10.8325H6.24403" stroke="#8F8F9C" stroke-linecap="round" stroke-linejoin="round"/>
<path d="M7.55499 1V3.622C7.55499 3.9697 7.69312 4.30316 7.93898 4.54902C8.18484 4.79488 8.51829 4.933 8.86599 4.933H11.488" stroke="#8F8F9C" stroke-linejoin="round"/>
</svg>
