<svg width="20" height="15" viewBox="0 0 20 15" fill="none" xmlns="http://www.w3.org/2000/svg">
<path d="M18.6672 6.58202C19.1109 7.1625 19.1109 7.94616 18.6672 8.52571C17.2693 10.3505 13.9156 14.1077 10.0001 14.1077C6.08468 14.1077 2.73097 10.3505 1.33313 8.52571C1.11721 8.24776 1 7.90582 1 7.55386C1 7.2019 1.11721 6.85997 1.33313 6.58202C2.73097 4.75724 6.08468 1 10.0001 1C13.9156 1 17.2693 4.75724 18.6672 6.58202V6.58202Z" stroke="#678ADD" stroke-linecap="round" stroke-linejoin="round"/>
<path d="M10.0001 10.3627C11.5514 10.3627 12.8089 9.10511 12.8089 7.55385C12.8089 6.0026 11.5514 4.74506 10.0001 4.74506C8.44889 4.74506 7.19135 6.0026 7.19135 7.55385C7.19135 9.10511 8.44889 10.3627 10.0001 10.3627Z" stroke="#678ADD" stroke-linecap="round" stroke-linejoin="round"/>
</svg>
