<svg width="61" height="61" viewBox="0 0 61 61" fill="none" xmlns="http://www.w3.org/2000/svg">
<circle cx="30.38" cy="30.62" r="30.38" fill="#FA6666"/>
<rect x="14.388" y="14.628" width="31.8702" height="31.8702" stroke="white"/>
<path d="M38.5625 27.2312L37.1999 23.1433C37.0023 22.5482 36.622 22.0304 36.1133 21.6637C35.6046 21.2969 34.9932 21.0998 34.3661 21.1004H25.284C24.6569 21.0998 24.0455 21.2969 23.5368 21.6637C23.0281 22.0304 22.6478 22.5482 22.4502 23.1433L21.0876 27.2312C20.7252 27.3828 20.4158 27.6382 20.1981 27.9651C19.9805 28.2921 19.8644 28.6761 19.8644 29.0689V34.0493C19.8644 34.7844 20.2668 35.4198 20.8605 35.7655V38.0335C20.8605 38.2977 20.9654 38.551 21.1522 38.7378C21.339 38.9246 21.5924 39.0296 21.8565 39.0296H22.8526C23.1168 39.0296 23.3701 38.9246 23.5569 38.7378C23.7437 38.551 23.8487 38.2977 23.8487 38.0335V36.0414H35.8014V38.0335C35.8014 38.2977 35.9064 38.551 36.0932 38.7378C36.28 38.9246 36.5333 39.0296 36.7975 39.0296H37.7936C38.0577 39.0296 38.3111 38.9246 38.4979 38.7378C38.6847 38.551 38.7896 38.2977 38.7896 38.0335V35.7655C39.0918 35.5922 39.343 35.3423 39.5179 35.041C39.6928 34.7397 39.7851 34.3976 39.7857 34.0493V29.0689C39.7857 28.6761 39.6696 28.2921 39.452 27.9651C39.2343 27.6382 38.9249 27.3828 38.5625 27.2312ZM25.284 23.0925H34.3651C34.7944 23.0925 35.1749 23.3655 35.3104 23.7738L36.412 27.0768H23.2381L24.3387 23.7738C24.4048 23.5754 24.5317 23.4028 24.7013 23.2806C24.871 23.1583 25.0748 23.0925 25.284 23.0925ZM23.3506 33.0532C23.1544 33.0531 22.96 33.0144 22.7787 32.9392C22.5974 32.8641 22.4327 32.7539 22.2939 32.6151C22.1552 32.4762 22.0452 32.3114 21.9701 32.1301C21.8951 31.9487 21.8565 31.7544 21.8565 31.5581C21.8566 31.3618 21.8953 31.1675 21.9705 30.9862C22.0457 30.8049 22.1558 30.6401 22.2946 30.5014C22.4335 30.3627 22.5983 30.2526 22.7796 30.1776C22.961 30.1025 23.1553 30.0639 23.3516 30.064C23.748 30.0641 24.1281 30.2217 24.4083 30.5021C24.6885 30.7825 24.8459 31.1627 24.8457 31.5591C24.8456 31.9555 24.688 32.3356 24.4076 32.6158C24.1272 32.896 23.747 33.0533 23.3506 33.0532ZM36.2995 33.0532C36.1032 33.0531 35.9089 33.0144 35.7276 32.9392C35.5462 32.8641 35.3815 32.7539 35.2428 32.6151C35.104 32.4762 34.994 32.3114 34.919 32.1301C34.8439 31.9487 34.8053 31.7544 34.8054 31.5581C34.8054 31.3618 34.8442 31.1675 34.9193 30.9862C34.9945 30.8049 35.1047 30.6401 35.2435 30.5014C35.3823 30.3627 35.5471 30.2526 35.7285 30.1776C35.9098 30.1025 36.1042 30.0639 36.3005 30.064C36.6969 30.0641 37.077 30.2217 37.3572 30.5021C37.6374 30.7825 37.7947 31.1627 37.7946 31.5591C37.7944 31.9555 37.6368 32.3356 37.3565 32.6158C37.0761 32.896 36.6959 33.0533 36.2995 33.0532Z" fill="white"/>
<line x1="14.6537" y1="46.5215" x2="45.6455" y2="14.6475" stroke="white"/>
</svg>
