<svg width="59" height="62" viewBox="0 0 59 62" fill="none" xmlns="http://www.w3.org/2000/svg">
<path d="M56.001 22.8003C56.1574 22.4218 56.2422 22.0142 56.2505 21.6007C56.2588 21.1873 56.1904 20.7762 56.0494 20.3909C55.9083 20.0057 55.6973 19.6538 55.4284 19.3554C55.1595 19.057 54.838 18.8181 54.4823 18.6521L15.7736 0.508528C12.8279 -0.872098 9.20126 0.669286 7.94305 3.79303L1.40032 20.039C0.784795 21.5758 0.767031 23.3097 1.35093 24.8604C1.93482 26.4111 3.07268 27.6518 4.51478 28.3102L22.3903 36.4679L18.7193 46.2394H5.92102V36.7831H0V62H5.92102V52.5437H18.7193C21.1558 52.5437 23.314 50.9865 24.214 48.5783L27.8318 38.9517L43.2412 45.9809C43.9588 46.3088 44.7691 46.3215 45.4955 46.0163C46.2219 45.7111 46.8056 45.1126 47.1195 44.3513L48.0432 42.1133L53.079 44.2567L59 28.4962L54.4527 26.5639L56.001 22.8003ZM42.8741 38.958L6.84766 22.5198L13.3845 6.28005L49.3902 23.1565L42.8741 38.958Z" fill="white"/>
</svg>
