<svg width="26" height="27" viewBox="0 0 26 27" fill="none" xmlns="http://www.w3.org/2000/svg">
<path d="M24.6784 9.92916C24.7473 9.76433 24.7847 9.58681 24.7883 9.40678C24.792 9.22674 24.7619 9.04771 24.6997 8.87993C24.6376 8.71214 24.5446 8.5589 24.4261 8.42897C24.3076 8.29904 24.1659 8.19496 24.0091 8.12269L6.95108 0.221456C5.65297 -0.379785 4.05479 0.291463 3.50033 1.6518L0.617091 8.72668C0.345842 9.3959 0.338014 10.151 0.595324 10.8263C0.852634 11.5016 1.35406 12.0419 1.98956 12.3286L9.86693 15.8812L8.24918 20.1365H2.60926V16.0184H0V27H2.60926V22.8819H8.24918C9.3229 22.8819 10.274 22.2038 10.6706 21.1551L12.2648 16.9629L19.0554 20.024C19.3717 20.1667 19.7287 20.1723 20.0489 20.0394C20.369 19.9064 20.6262 19.6458 20.7645 19.3143L21.1716 18.3397L23.3907 19.2731L26 12.4096L23.9961 11.5682L24.6784 9.92916ZM18.8937 16.9656L3.01761 9.80699L5.89824 2.73486L21.7652 10.0843L18.8937 16.9656Z" fill="#678ADD"/>
</svg>
