<svg width="16" height="15" viewBox="0 0 16 15" fill="none" xmlns="http://www.w3.org/2000/svg">
<path d="M1 1H14.8V9.97H1V1Z" stroke="white" stroke-linecap="round" stroke-linejoin="round"/>
<path d="M7.20996 4.105L9.27996 5.485L7.20996 6.865V4.105Z" stroke="white" stroke-linecap="round" stroke-linejoin="round"/>
<path d="M3.41494 13.075H1.68994" stroke="white" stroke-linecap="round" stroke-linejoin="round"/>
<path d="M5.48511 13.075H14.1101" stroke="white" stroke-linecap="round" stroke-linejoin="round"/>
<path d="M5.48504 13.075C5.48504 13.2109 5.45827 13.3455 5.40625 13.4711C5.35424 13.5967 5.278 13.7107 5.18189 13.8069C5.08579 13.903 4.97169 13.9792 4.84612 14.0312C4.72054 14.0832 4.58596 14.11 4.45004 14.11C4.31412 14.11 4.17953 14.0832 4.05396 14.0312C3.92839 13.9792 3.81429 13.903 3.71818 13.8069C3.62207 13.7107 3.54584 13.5967 3.49382 13.4711C3.44181 13.3455 3.41504 13.2109 3.41504 13.075C3.41504 12.8005 3.52408 12.5372 3.71818 12.3431C3.91228 12.149 4.17554 12.04 4.45004 12.04C4.72454 12.04 4.98779 12.149 5.18189 12.3431C5.37599 12.5372 5.48504 12.8005 5.48504 13.075V13.075Z" stroke="white" stroke-linecap="round" stroke-linejoin="round"/>
</svg>
