<svg width="12" height="14" viewBox="0 0 12 14" fill="none" xmlns="http://www.w3.org/2000/svg">
<path d="M9.63864 1.62693L11.2656 0H5.58197V5.6836L7.21601 4.04957C8.61559 5.08682 9.52497 6.73507 9.52497 8.61066C9.52497 9.54134 9.29762 10.4152 8.89977 11.1896C10.5551 10.1097 11.6563 8.24833 11.6563 6.12408C11.6563 4.33375 10.8677 2.73523 9.63864 1.62693V1.62693Z" fill="#8F8F9C"/>
<path d="M2.13135 4.49934C2.13135 3.56865 2.3587 2.6948 2.75655 1.92041C1.91013 2.46688 1.21429 3.21691 0.732712 4.10186C0.251139 4.98682 -0.000783766 5.97842 1.83173e-06 6.98592C1.83173e-06 8.77625 0.781497 10.3748 2.01768 11.4831L0.383645 13.11H6.06725V7.4264L4.43321 9.06043C3.04073 8.02318 2.13135 6.37493 2.13135 4.49934V4.49934Z" fill="#8F8F9C"/>
</svg>
