<svg width="24" height="26" viewBox="0 0 24 26" fill="none" xmlns="http://www.w3.org/2000/svg">
<path d="M6.53662 14.0568L21.1286 24.8657C21.3965 25.0642 21.7142 25.1843 22.0464 25.2127C22.3785 25.2412 22.7121 25.1768 23.0098 25.0268C23.3075 24.8769 23.5578 24.6472 23.7326 24.3633C23.9074 24.0795 24 23.7526 24 23.4193L24 1.80158C24.0006 1.46797 23.9084 1.14077 23.7336 0.856573C23.5589 0.572372 23.3086 0.342369 23.0107 0.19228C22.7127 0.0421925 22.3789 -0.0220623 22.0465 0.0066967C21.7142 0.0354557 21.3964 0.156096 21.1286 0.355129L6.53662 11.164C6.31063 11.3314 6.12702 11.5494 6.0005 11.8006C5.87398 12.0518 5.80807 12.3291 5.80807 12.6104C5.80807 12.8916 5.87398 13.1689 6.0005 13.4201C6.12702 13.6713 6.31063 13.8893 6.53662 14.0567V14.0568ZM21.6 2.99295L21.6 22.2282L8.61607 12.6104L21.6 2.99295Z" fill="white"/>
<path d="M2.40015 25.2004H0.000146627L0.000146627 0.000440598H2.40015L2.40015 25.2004Z" fill="white"/>
</svg>
