<svg width="24" height="26" viewBox="0 0 24 26" fill="none" xmlns="http://www.w3.org/2000/svg">
<path d="M17.4634 11.1625L2.87138 0.353572C2.60349 0.155148 2.28576 0.035016 1.95361 0.00656704C1.62146 -0.0218819 1.28793 0.04247 0.990202 0.192449C0.692475 0.342429 0.442247 0.572143 0.267411 0.855987C0.0925742 1.13983 -1.20314e-06 1.46665 2.76575e-06 1.80002V23.4177C-0.000582208 23.7513 0.0916381 24.0785 0.266353 24.3627C0.441068 24.6469 0.691391 24.8769 0.989332 25.027C1.28727 25.1771 1.62109 25.2414 1.95346 25.2126C2.28583 25.1838 2.60364 25.0632 2.87138 24.8642L17.4634 14.0553C17.6894 13.8879 17.873 13.6699 17.9995 13.4187C18.126 13.1675 18.1919 12.8902 18.1919 12.6089C18.1919 12.3277 18.126 12.0504 17.9995 11.7992C17.873 11.548 17.6894 11.33 17.4634 11.1626V11.1625ZM2.4 22.2263V2.9911L15.3839 12.6089L2.4 22.2263Z" fill="white"/>
<path d="M21.5999 0.0188599H23.9999V25.2189H21.5999V0.0188599Z" fill="white"/>
</svg>
